<svg width="22" height="15" viewBox="0 0 22 15" fill="none" xmlns="http://www.w3.org/2000/svg">
<path d="M13.6323 8.08984C13.6323 7.63449 13.5848 7.28348 13.5184 6.93248H6.95368V9.3231H10.9001C10.7388 10.3382 9.7048 12.3209 6.95368 12.3209C4.58203 12.3209 2.64676 10.3571 2.64676 7.92857C2.64676 5.5 4.58203 3.53627 6.95368 3.53627C8.31027 3.53627 9.2115 4.11496 9.72377 4.60826L11.6116 2.79632C10.3973 1.65792 8.83203 0.974888 6.95368 0.974888C3.11161 0.974888 0 4.0865 0 7.92857C0 11.7706 3.11161 14.8823 6.95368 14.8823C10.9665 14.8823 13.6323 12.0647 13.6323 8.08984ZM21.8571 6.93248H19.8744V4.94978H17.8823V6.93248H15.8996V8.92467H17.8823V10.9074H19.8744V8.92467H21.8571V6.93248Z" fill="white"/>
</svg>
