<svg width="19" height="20" viewBox="0 0 19 20" fill="none" xmlns="http://www.w3.org/2000/svg">
<path d="M18.8571 10.1429C18.8571 4.9375 14.6339 0.714285 9.42857 0.714285C4.22321 0.714285 0 4.9375 0 10.1429C0 14.01 2.32031 17.3248 5.64732 18.7857C5.62277 18.1228 5.63505 17.3248 5.80692 16.6127C5.80692 16.6127 5.99107 15.8516 7.02232 11.481C6.7154 10.8795 6.7154 9.98326 6.7154 9.98326C6.7154 8.5837 7.52567 7.54018 8.53237 7.54018C9.39174 7.54018 9.80915 8.19085 9.80915 8.96429C9.80915 9.82366 9.2567 11.1127 8.97433 12.3036C8.74107 13.3103 9.47768 14.1205 10.4598 14.1205C12.2522 14.1205 13.4554 11.8248 13.4554 9.11161C13.4554 7.03683 12.0558 5.48995 9.52679 5.48995C6.6663 5.48995 4.88616 7.62612 4.88616 10.0078C4.88616 10.8304 5.1317 11.4074 5.51228 11.8616C5.68415 12.0703 5.70871 12.144 5.64732 12.3895C5.59821 12.5614 5.5 12.9788 5.45089 13.1384C5.38951 13.3839 5.19308 13.4699 4.98438 13.3839C3.67076 12.8437 3.05692 11.3951 3.05692 9.77455C3.05692 7.09821 5.31585 3.8817 9.7846 3.8817C13.394 3.8817 15.7634 6.49665 15.7634 9.28348C15.7634 12.9911 13.7009 15.7533 10.6685 15.7533C9.64955 15.7533 8.69196 15.2009 8.37277 14.5748C7.82031 16.7478 7.70982 17.1652 7.70982 17.1652C7.51339 17.8895 7.10826 18.6138 6.75223 19.1786C7.61161 19.4364 8.49554 19.5714 9.42857 19.5714C14.6339 19.5714 18.8571 15.3482 18.8571 10.1429Z" fill="white"/>
</svg>
